<svg width="101" height="100" viewBox="0 0 101 100" fill="none" xmlns="http://www.w3.org/2000/svg">
<g clip-path="url(#clip0_745_1884)">
<path d="M50.25 41.0156H9.625C4.66307 41.0156 0.640625 45.0381 0.640625 50V90.625C0.640625 95.5869 4.66307 99.6094 9.625 99.6094H50.25C55.2119 99.6094 59.2344 95.5869 59.2344 90.625V50C59.2344 45.0381 55.2119 41.0156 50.25 41.0156Z" fill="#FA6E96"/>
<path d="M55.7903 3.02481L27.0684 31.7467C23.5603 35.2548 23.5603 40.9425 27.0684 44.4506L55.7903 73.1725C59.2983 76.6805 64.9861 76.6805 68.4942 73.1725L97.216 44.4506C100.724 40.9425 100.724 35.2548 97.216 31.7467L68.4942 3.02481C64.9861 -0.48328 59.2983 -0.483279 55.7903 3.02481Z" fill="#E4EBF7"/>
<path d="M29.9375 80.8594C35.7624 80.8594 40.4844 76.1374 40.4844 70.3125C40.4844 64.4876 35.7624 59.7656 29.9375 59.7656C24.1126 59.7656 19.3906 64.4876 19.3906 70.3125C19.3906 76.1374 24.1126 80.8594 29.9375 80.8594Z" fill="#F7F9FE"/>
<path d="M76.5156 46.3C81.0461 46.3 84.7188 42.6274 84.7188 38.0969C84.7188 33.5665 81.0461 29.8938 76.5156 29.8938C71.9852 29.8938 68.3125 33.5665 68.3125 38.0969C68.3125 42.6274 71.9852 46.3 76.5156 46.3Z" fill="#646487"/>
<path d="M47.7891 46.3C52.3195 46.3 55.9922 42.6274 55.9922 38.0969C55.9922 33.5665 52.3195 29.8938 47.7891 29.8938C43.2586 29.8938 39.5859 33.5665 39.5859 38.0969C39.5859 42.6274 43.2586 46.3 47.7891 46.3Z" fill="#646487"/>
</g>
<defs>
<clipPath id="clip0_745_1884">
<rect width="100" height="100" fill="white" transform="translate(0.25)"/>
</clipPath>
</defs>
</svg>
