<svg width="38" height="37" viewBox="0 0 38 37" fill="none" xmlns="http://www.w3.org/2000/svg">
<g clip-path="url(#clip0_630_7477)">
<path d="M34.6094 28.3643H3.39062C2.49262 28.3643 1.76465 29.0922 1.76465 29.9902C1.76465 30.8882 2.49262 31.6162 3.39062 31.6162H34.6094C35.5074 31.6162 36.2354 30.8882 36.2354 29.9902C36.2354 29.0922 35.5074 28.3643 34.6094 28.3643Z" fill="#F3F7FB"/>
<path d="M34.6094 28.3643H33.5254C33.9566 28.3643 34.3702 28.5356 34.6751 28.8405C34.9801 29.1454 35.1514 29.559 35.1514 29.9902C35.1514 30.4215 34.9801 30.835 34.6751 31.14C34.3702 31.4449 33.9566 31.6162 33.5254 31.6162H34.6094C35.0406 31.6162 35.4542 31.4449 35.7591 31.14C36.064 30.835 36.2354 30.4215 36.2354 29.9902C36.2354 29.559 36.064 29.1454 35.7591 28.8405C35.4542 28.5356 35.0406 28.3643 34.6094 28.3643Z" fill="#5875B8"/>
<path d="M3.77002 28.3643C3.3186 25.8542 2.86646 23.3444 2.41359 20.8349L1.04199 14.5254L5.93799 16.585L5.92354 16.611C5.70729 16.8627 5.5678 17.1712 5.52163 17.4998C5.47545 17.8284 5.52453 18.1634 5.66303 18.465C5.80153 18.7666 6.02365 19.0221 6.30302 19.2012C6.58238 19.3803 6.90727 19.4755 7.23913 19.4755C7.57099 19.4755 7.89588 19.3803 8.17525 19.2012C8.45461 19.0221 8.67673 18.7666 8.81523 18.465C8.95373 18.1634 9.00281 17.8284 8.95663 17.4998C8.91046 17.1712 8.77097 16.8627 8.55473 16.611L8.53955 16.585C8.8633 14.7205 9.18729 12.8558 9.51152 10.9909L12.8032 15.7178C12.699 16.035 12.6659 16.3713 12.7064 16.7028C12.8509 17.8323 13.8352 18.4176 13.9508 18.4841C14.3811 18.7275 14.8713 18.8446 15.3651 18.8218C15.859 18.7991 16.3364 18.6374 16.7424 18.3555C17.8792 17.5519 17.8358 16.1702 17.8264 16.0206C17.7715 14.9019 17.0163 13.8938 15.902 13.4414L18.9812 5.38379H19.0188L22.0959 13.4414C20.9815 13.8938 20.2263 14.9019 20.1714 16.0206C20.1642 16.1702 20.1208 17.5519 21.2554 18.3555C21.6615 18.6373 22.139 18.7988 22.6328 18.8214C23.1266 18.8441 23.6168 18.7269 24.047 18.4834C24.1627 18.4169 25.1469 17.833 25.2914 16.702C25.3319 16.3706 25.2989 16.0343 25.1946 15.7171L28.4863 10.9902C28.8101 12.8546 29.1341 14.7193 29.4583 16.5842L29.4431 16.6103C29.2269 16.862 29.0874 17.1705 29.0412 17.4991C28.995 17.8277 29.0441 18.1627 29.1826 18.4643C29.3211 18.7658 29.5432 19.0213 29.8226 19.2005C30.102 19.3796 30.4268 19.4748 30.7587 19.4748C31.0906 19.4748 31.4154 19.3796 31.6948 19.2005C31.9742 19.0213 32.1963 18.7658 32.3348 18.4643C32.4733 18.1627 32.5224 17.8277 32.4762 17.4991C32.43 17.1705 32.2905 16.862 32.0743 16.6103L32.0598 16.5842L36.958 14.5254L35.585 20.8385C35.1326 23.3485 34.6804 25.8583 34.2285 28.3679L3.77002 28.3643Z" fill="#F3F7FB"/>
<path d="M16.3608 13.6705C16.2581 13.4966 16.1383 13.3335 16.0031 13.1834C15.9699 13.2694 15.9374 13.3561 15.9041 13.4421C16.062 13.5064 16.2147 13.5828 16.3608 13.6705ZM28.3764 15.501L28.3613 15.527C28.1764 15.7421 28.0472 15.9992 27.9848 16.2758C27.9224 16.5524 27.9287 16.8401 28.0033 17.1137C28.0779 17.3873 28.2185 17.6384 28.4127 17.8451C28.6068 18.0517 28.8487 18.2076 29.1172 18.2991C29.0202 18.0136 28.9993 17.7077 29.0566 17.4117C29.1138 17.1157 29.2473 16.8397 29.4438 16.611L29.459 16.585C29.1347 14.7205 28.8112 12.8558 28.4884 10.9909C28.25 11.3344 28.011 11.6774 27.7716 12.0199L28.3764 15.501ZM21.0118 12.3574C19.8975 12.8098 19.1423 13.8179 19.0874 14.9366C19.0802 15.0862 19.0368 16.4679 20.1714 17.2715C20.2708 17.3416 20.3751 17.4044 20.4836 17.4594C20.2629 17.0126 20.155 16.5186 20.1692 16.0206C20.2242 14.9019 20.9793 13.8938 22.0937 13.4414L19.0188 5.38379H18.9812L18.6647 6.21484L21.0118 12.3574Z" fill="#5875B8"/>
<path d="M35.5055 15.1337C35.1711 16.6754 34.8368 18.2144 34.5024 19.7508L33.3599 26.0913C33.2997 26.4251 33.124 26.7271 32.8636 26.9444C32.6032 27.1618 32.2747 27.2806 31.9355 27.2801H3.57489L3.77001 28.3641H34.23L35.5864 20.8347L36.9594 14.5216L35.5055 15.1337ZM11.7192 14.6336C11.615 14.9509 11.5819 15.2872 11.6224 15.6186C11.7669 16.7481 12.7512 17.3335 12.8668 17.4C12.8914 17.4137 12.9159 17.426 12.9391 17.439C12.8171 17.2097 12.7375 16.9602 12.7042 16.7026C12.6637 16.3711 12.6968 16.0348 12.801 15.7176L9.51151 10.9907L9.44575 11.3687L11.7192 14.6336ZM4.4363 16.8912C4.47986 17.2105 4.61153 17.5114 4.81653 17.76C5.02153 18.0087 5.29175 18.1953 5.59688 18.2989C5.49989 18.0134 5.479 17.7076 5.53628 17.4116C5.59356 17.1155 5.72703 16.8395 5.92352 16.6108L5.93798 16.5848L4.54686 16.0002C4.43243 16.2823 4.3943 16.5896 4.4363 16.8912Z" fill="#5875B8"/>
<path d="M19 25.7627C20.2971 25.7627 21.3486 24.7112 21.3486 23.4141C21.3486 22.1169 20.2971 21.0654 19 21.0654C17.7029 21.0654 16.6514 22.1169 16.6514 23.4141C16.6514 24.7112 17.7029 25.7627 19 25.7627Z" fill="#EB304A"/>
<path d="M19 21.0654C18.8175 21.0655 18.6356 21.0869 18.458 21.129C18.9722 21.2512 19.4302 21.5432 19.7579 21.9578C20.0855 22.3725 20.2638 22.8856 20.2638 23.4141C20.2638 23.9426 20.0855 24.4556 19.7579 24.8703C19.4302 25.2849 18.9722 25.5769 18.458 25.6991C18.7806 25.7757 19.1157 25.7832 19.4413 25.721C19.767 25.6588 20.0757 25.5284 20.3474 25.3384C20.619 25.1483 20.8473 24.9029 21.0173 24.6182C21.1873 24.3336 21.2951 24.0162 21.3336 23.6869C21.3721 23.3576 21.3405 23.0239 21.2408 22.7078C21.1411 22.3916 20.9755 22.1001 20.7551 21.8525C20.5347 21.6048 20.2643 21.4067 19.9618 21.271C19.6593 21.1354 19.3315 21.0653 19 21.0654Z" fill="#E4222E"/>
<path d="M31.3574 24.498C31.9561 24.498 32.4414 24.0127 32.4414 23.4141C32.4414 22.8154 31.9561 22.3301 31.3574 22.3301C30.7588 22.3301 30.2734 22.8154 30.2734 23.4141C30.2734 24.0127 30.7588 24.498 31.3574 24.498Z" fill="#EB304A"/>
<path d="M31.3574 22.3301C31.2789 22.3302 31.2007 22.339 31.124 22.3561C31.3646 22.4098 31.5797 22.5438 31.7338 22.7361C31.888 22.9285 31.9719 23.1676 31.9719 23.4141C31.9719 23.6605 31.888 23.8997 31.7338 24.092C31.5797 24.2843 31.3646 24.4184 31.124 24.472C31.2728 24.5052 31.427 24.5067 31.5764 24.4762C31.7258 24.4458 31.8671 24.3842 31.9911 24.2954C32.1151 24.2067 32.2189 24.0927 32.2959 23.9611C32.3728 23.8295 32.4212 23.6831 32.4377 23.5315C32.4542 23.3799 32.4385 23.2265 32.3918 23.0814C32.345 22.9363 32.2681 22.8027 32.1661 22.6893C32.0642 22.5759 31.9395 22.4853 31.8001 22.4234C31.6608 22.3615 31.5099 22.3297 31.3574 22.3301Z" fill="#E4222E"/>
<path d="M6.64258 24.498C7.24125 24.498 7.72656 24.0127 7.72656 23.4141C7.72656 22.8154 7.24125 22.3301 6.64258 22.3301C6.04391 22.3301 5.55859 22.8154 5.55859 23.4141C5.55859 24.0127 6.04391 24.498 6.64258 24.498Z" fill="#EB304A"/>
<path d="M12.4961 25.8559L10.6309 23.414L12.4961 20.9722L14.3613 23.414L12.4961 25.8559Z" fill="#1CABE1"/>
<path d="M12.4961 20.9722L11.9541 21.6796L12.9427 22.9732C13.0389 23.0992 13.0911 23.2533 13.0911 23.4119C13.0911 23.5704 13.0389 23.7245 12.9427 23.8505L11.9541 25.1484L12.4961 25.858L14.3613 23.414L12.4961 20.9722Z" fill="#199AD5"/>
<path d="M25.5039 25.8559L23.6387 23.414L25.5039 20.9722L27.3691 23.414L25.5039 25.8559Z" fill="#1CABE1"/>
<path d="M25.5039 20.9722L24.9619 21.6796L25.9505 22.9732C26.0467 23.0992 26.0989 23.2533 26.0989 23.4119C26.0989 23.5704 26.0467 23.7245 25.9505 23.8505L24.9619 25.1484L25.5039 25.858L27.3691 23.414L25.5039 20.9722Z" fill="#199AD5"/>
<path d="M6.6426 22.3301C6.56408 22.3302 6.48581 22.339 6.40918 22.3561C6.64974 22.4098 6.86482 22.5438 7.01897 22.7361C7.17311 22.9285 7.2571 23.1676 7.2571 23.4141C7.2571 23.6605 7.17311 23.8997 7.01897 24.092C6.86482 24.2843 6.64974 24.4184 6.40918 24.472C6.558 24.5052 6.71215 24.5067 6.86156 24.4762C7.01098 24.4458 7.15229 24.3842 7.27626 24.2954C7.40024 24.2067 7.5041 24.0927 7.58105 23.9611C7.658 23.8295 7.70631 23.6831 7.72283 23.5315C7.73935 23.3799 7.7237 23.2265 7.67691 23.0814C7.63012 22.9363 7.55324 22.8027 7.45129 22.6893C7.34934 22.5759 7.22462 22.4853 7.08527 22.4234C6.94592 22.3615 6.79508 22.3297 6.6426 22.3301Z" fill="#E4222E"/>
<path d="M6.64257 21.7881C6.32099 21.7881 6.00662 21.8834 5.73923 22.0621C5.47184 22.2408 5.26343 22.4947 5.14037 22.7918C5.0173 23.0889 4.9851 23.4159 5.04784 23.7313C5.11058 24.0467 5.26544 24.3364 5.49284 24.5638C5.72023 24.7912 6.00995 24.9461 6.32536 25.0088C6.64077 25.0715 6.9677 25.0393 7.26481 24.9163C7.56192 24.7932 7.81586 24.5848 7.99453 24.3174C8.17319 24.05 8.26855 23.7357 8.26855 23.4141C8.26817 22.9829 8.09674 22.5696 7.79189 22.2647C7.48704 21.9599 7.07369 21.7885 6.64257 21.7881ZM6.64257 23.9561C6.53538 23.9561 6.43059 23.9243 6.34146 23.8647C6.25233 23.8052 6.18286 23.7205 6.14184 23.6215C6.10082 23.5224 6.09008 23.4135 6.111 23.3083C6.13191 23.2032 6.18353 23.1066 6.25933 23.0308C6.33513 22.955 6.4317 22.9034 6.53684 22.8825C6.64197 22.8616 6.75095 22.8723 6.84999 22.9133C6.94902 22.9543 7.03367 23.0238 7.09323 23.1129C7.15278 23.2021 7.18457 23.3069 7.18457 23.4141C7.18457 23.5578 7.12746 23.6957 7.02582 23.7973C6.92418 23.899 6.78632 23.9561 6.64257 23.9561ZM10.6309 16.6811C10.7381 16.6811 10.8429 16.6493 10.932 16.5897C11.0212 16.5302 11.0906 16.4455 11.1316 16.3465C11.1727 16.2475 11.1834 16.1385 11.1625 16.0333C11.1416 15.9282 11.09 15.8316 11.0142 15.7558C10.9384 15.68 10.8418 15.6284 10.7367 15.6075C10.6315 15.5866 10.5225 15.5973 10.4235 15.6383C10.3245 15.6794 10.2398 15.7488 10.1803 15.838C10.1207 15.9271 10.0889 16.0319 10.0889 16.1391C10.0889 16.2828 10.146 16.4207 10.2477 16.5223C10.3493 16.624 10.4872 16.6811 10.6309 16.6811ZM3.61681 17.1053C3.50962 17.1053 3.40483 17.1371 3.3157 17.1966C3.22657 17.2562 3.1571 17.3408 3.11608 17.4399C3.07506 17.5389 3.06432 17.6479 3.08523 17.753C3.10615 17.8581 3.15777 17.9547 3.23357 18.0305C3.30937 18.1063 3.40594 18.1579 3.51108 18.1788C3.61621 18.1998 3.72519 18.189 3.82422 18.148C3.92326 18.107 4.00791 18.0375 4.06746 17.9484C4.12702 17.8593 4.1588 17.7545 4.1588 17.6473C4.1588 17.5035 4.1017 17.3657 4.00006 17.264C3.89842 17.1624 3.76056 17.1053 3.61681 17.1053ZM34.3832 17.1053C34.276 17.1053 34.1712 17.1371 34.0821 17.1966C33.9929 17.2562 33.9235 17.3408 33.8824 17.4399C33.8414 17.5389 33.8307 17.6479 33.8516 17.753C33.8725 17.8581 33.9241 17.9547 33.9999 18.0305C34.0757 18.1063 34.1723 18.1579 34.2774 18.1788C34.3826 18.1998 34.4916 18.189 34.5906 18.148C34.6896 18.107 34.7743 18.0375 34.8338 17.9484C34.8934 17.8593 34.9252 17.7545 34.9252 17.6473C34.9252 17.5035 34.8681 17.3657 34.7664 17.264C34.6648 17.1624 34.5269 17.1053 34.3832 17.1053ZM37.4906 14.6367C37.5116 14.5397 37.5056 14.4389 37.4732 14.3451C37.4409 14.2514 37.3834 14.1683 37.3071 14.1049C37.2307 14.0416 37.1385 14.0004 37.0404 13.9858C36.9423 13.9713 36.842 13.9839 36.7506 14.0224L31.8539 16.0856C31.7833 16.1153 31.7198 16.1596 31.6676 16.2157C31.6154 16.2717 31.5757 16.3382 31.5511 16.4108C31.5265 16.4833 31.5176 16.5603 31.5249 16.6365C31.5323 16.7127 31.5557 16.7866 31.5937 16.8531L31.6089 16.8791C31.6256 16.9097 31.6458 16.9383 31.6689 16.9644C31.8179 17.1373 31.9141 17.3494 31.9462 17.5755C31.9782 17.8015 31.9446 18.032 31.8495 18.2395C31.7544 18.4471 31.6017 18.6229 31.4095 18.7462C31.2174 18.8695 30.9939 18.9351 30.7656 18.9351C30.5373 18.9351 30.3138 18.8695 30.1216 18.7462C29.9295 18.6229 29.7768 18.4471 29.6816 18.2395C29.5865 18.032 29.5529 17.8015 29.585 17.5755C29.617 17.3494 29.7132 17.1373 29.8622 16.9644C29.8847 16.9378 29.9048 16.9092 29.9222 16.8791L29.9374 16.8531C29.9994 16.7435 30.0216 16.6158 30.0003 16.4917L29.0225 10.8977C29.0044 10.7917 28.9551 10.6935 28.8809 10.6157C28.8067 10.5378 28.7111 10.4838 28.6061 10.4606C28.5011 10.4373 28.3916 10.4458 28.2915 10.4851C28.1914 10.5243 28.1053 10.5925 28.044 10.6809L24.7516 15.4078C24.7037 15.4763 24.6722 15.555 24.6597 15.6378C24.6471 15.7205 24.6539 15.805 24.6794 15.8847C24.7584 16.1261 24.7831 16.382 24.7516 16.6341C24.6418 17.4941 23.8635 17.9638 23.7753 18.0144C23.4342 18.2054 23.0466 18.2972 22.656 18.2795C22.2655 18.2617 21.8878 18.1351 21.5654 17.9139C20.6744 17.2838 20.7026 16.1723 20.7084 16.0473C20.7532 15.1433 21.3761 14.318 22.2982 13.9444C22.4296 13.8911 22.5348 13.7885 22.5914 13.6585C22.648 13.5286 22.6514 13.3816 22.601 13.2492L19.5254 5.19012C19.4861 5.08776 19.4167 4.99969 19.3265 4.93751C19.2362 4.87534 19.1291 4.84197 19.0195 4.8418H18.9819C18.8723 4.84197 18.7653 4.87534 18.675 4.93751C18.5847 4.99969 18.5153 5.08776 18.4761 5.19012L15.3976 13.2492C15.3471 13.3816 15.3505 13.5286 15.4071 13.6585C15.4637 13.7885 15.569 13.8911 15.7003 13.9444C16.6196 14.318 17.2425 15.1433 17.2902 16.0473C17.296 16.1723 17.3242 17.2838 16.4331 17.9139C16.1108 18.1351 15.733 18.2617 15.3425 18.2795C14.952 18.2972 14.5643 18.2054 14.2232 18.0144C14.1351 17.9638 13.3561 17.4941 13.2469 16.6341C13.2155 16.382 13.2402 16.1261 13.3192 15.8847C13.3447 15.805 13.3514 15.7205 13.3389 15.6378C13.3264 15.555 13.2949 15.4763 13.2469 15.4078L9.95595 10.6809C9.89474 10.5925 9.80859 10.5243 9.70848 10.4851C9.60838 10.4458 9.49886 10.4373 9.39389 10.4606C9.28892 10.4838 9.19325 10.5378 9.11909 10.6157C9.04493 10.6935 8.99563 10.7917 8.97748 10.8977L8.0055 16.4925C7.9842 16.6166 8.00641 16.7442 8.06838 16.8538L8.08355 16.8798C8.10096 16.91 8.12104 16.9385 8.14353 16.9651C8.29256 17.138 8.38879 17.3501 8.42081 17.5762C8.45283 17.8022 8.41928 18.0327 8.32415 18.2403C8.22902 18.4478 8.07631 18.6237 7.88416 18.7469C7.69202 18.8702 7.46851 18.9358 7.24021 18.9358C7.01191 18.9358 6.78841 18.8702 6.59626 18.7469C6.40412 18.6237 6.2514 18.4478 6.15627 18.2403C6.06114 18.0327 6.0276 17.8022 6.05961 17.5762C6.09163 17.3501 6.18787 17.138 6.33689 16.9651C6.36002 16.939 6.38014 16.9104 6.39687 16.8798L6.41205 16.8538C6.45005 16.7873 6.47349 16.7135 6.48085 16.6372C6.4882 16.561 6.47928 16.484 6.45469 16.4115C6.4301 16.339 6.3904 16.2725 6.3382 16.2164C6.286 16.1604 6.2225 16.116 6.15189 16.0863L1.25228 14.0195C1.16086 13.981 1.06063 13.9684 0.962509 13.9829C0.864389 13.9975 0.772143 14.0387 0.695819 14.102C0.619495 14.1654 0.562022 14.2485 0.529659 14.3422C0.497296 14.436 0.491285 14.5368 0.512281 14.6338L1.88533 20.9382L3.1283 27.836C2.57618 27.8982 2.06903 28.1701 1.71153 28.5954C1.35404 29.0207 1.17348 29.5671 1.20714 30.1217C1.2408 30.6763 1.48611 31.1968 1.89242 31.5757C2.29873 31.9547 2.83503 32.1632 3.39062 32.1582H34.6094C35.1609 32.1577 35.6916 31.947 36.0932 31.5689C36.4949 31.1909 36.7374 30.674 36.7712 30.1235C36.8051 29.5729 36.6279 29.0302 36.2757 28.6057C35.9234 28.1813 35.4227 27.9071 34.8753 27.8389L36.1183 20.9411L37.4906 14.6367ZM35.6934 29.9902C35.6934 30.1326 35.6653 30.2735 35.6108 30.4051C35.5564 30.5366 35.4765 30.6561 35.3759 30.7567C35.2752 30.8574 35.1557 30.9372 35.0242 30.9917C34.8927 31.0462 34.7517 31.0742 34.6094 31.0742H3.39062C3.10313 31.0742 2.82741 30.96 2.62413 30.7567C2.42084 30.5534 2.30664 30.2777 2.30664 29.9902C2.30664 29.7027 2.42084 29.427 2.62413 29.2237C2.82741 29.0205 3.10313 28.9062 3.39062 28.9062H34.6094C34.7517 28.9062 34.8927 28.9343 35.0242 28.9888C35.1557 29.0432 35.2752 29.1231 35.3759 29.2237C35.4765 29.3244 35.5564 29.4439 35.6108 29.5754C35.6653 29.7069 35.6934 29.8479 35.6934 29.9902ZM35.0531 20.7402L33.7769 27.8223H4.22023L2.94691 20.7402V20.7214L1.79355 15.4265L5.14884 16.8379C4.99235 17.2015 4.9334 17.5996 4.97781 17.9929C5.02222 18.3862 5.16846 18.7612 5.40208 19.0807C5.6357 19.4002 5.94862 19.6533 6.30995 19.8149C6.67127 19.9765 7.06851 20.0411 7.46242 20.0022C7.85633 19.9634 8.2333 19.8225 8.5561 19.5934C8.8789 19.3643 9.13636 19.055 9.30307 18.696C9.46977 18.337 9.53995 17.9407 9.50668 17.5463C9.47341 17.1519 9.33783 16.7729 9.11334 16.4469L9.82226 12.382L12.2171 15.8204C12.1473 16.1324 12.1319 16.4541 12.1716 16.7714C12.3443 18.1228 13.4616 18.8274 13.6841 18.9546C14.2033 19.2516 14.7963 19.3947 15.3939 19.3671C15.9914 19.3395 16.5687 19.1422 17.0582 18.7985C18.3937 17.8547 18.3872 16.2973 18.3727 15.9946C18.3164 14.8383 17.6327 13.7789 16.5892 13.1762L19 6.85367L21.4137 13.174C20.3702 13.7789 19.6865 14.8361 19.6302 15.9924C19.6157 16.2952 19.6092 17.8525 20.9447 18.7963C21.4342 19.14 22.0115 19.3373 22.609 19.3649C23.2065 19.3926 23.7996 19.2495 24.3187 18.9524C24.5413 18.8252 25.6586 18.1206 25.8313 16.7692C25.871 16.452 25.8556 16.1302 25.7857 15.8182L28.1777 12.382L28.8838 16.4491C28.6594 16.7755 28.524 17.1547 28.4909 17.5494C28.4579 17.9441 28.5284 18.3405 28.6954 18.6997C28.8624 19.0588 29.1203 19.3681 29.4434 19.5971C29.7665 19.8261 30.1438 19.9669 30.538 20.0055C30.9322 20.0442 31.3296 19.9793 31.691 19.8174C32.0525 19.6555 32.3655 19.4021 32.599 19.0822C32.8326 18.7623 32.9787 18.3871 33.0229 17.9935C33.0671 17.5999 33.0079 17.2016 32.8512 16.8379L36.2064 15.4244L35.0567 20.7178C35.0553 20.7265 35.0538 20.733 35.0531 20.7402ZM31.3574 21.7881C31.0358 21.7881 30.7215 21.8834 30.4541 22.0621C30.1867 22.2408 29.9783 22.4947 29.8552 22.7918C29.7321 23.0889 29.6999 23.4159 29.7627 23.7313C29.8254 24.0467 29.9803 24.3364 30.2077 24.5638C30.4351 24.7912 30.7248 24.9461 31.0402 25.0088C31.3556 25.0715 31.6825 25.0393 31.9797 24.9163C32.2768 24.7932 32.5307 24.5848 32.7094 24.3174C32.888 24.05 32.9834 23.7357 32.9834 23.4141C32.983 22.9829 32.8116 22.5696 32.5067 22.2647C32.2019 21.9599 31.7885 21.7885 31.3574 21.7881ZM31.3574 23.9561C31.2502 23.9561 31.1454 23.9243 31.0563 23.8647C30.9672 23.8052 30.8977 23.7205 30.8567 23.6215C30.8157 23.5224 30.8049 23.4135 30.8258 23.3083C30.8468 23.2032 30.8984 23.1066 30.9742 23.0308C31.05 22.955 31.1465 22.9034 31.2517 22.8825C31.3568 22.8616 31.4658 22.8723 31.5648 22.9133C31.6639 22.9543 31.7485 23.0238 31.8081 23.1129C31.8676 23.2021 31.8994 23.3069 31.8994 23.4141C31.8994 23.5578 31.8423 23.6957 31.7407 23.7973C31.639 23.899 31.5012 23.9561 31.3574 23.9561ZM19 20.5234C18.4283 20.5234 17.8694 20.693 17.3941 21.0106C16.9187 21.3282 16.5482 21.7797 16.3294 22.3079C16.1106 22.8361 16.0534 23.4173 16.1649 23.978C16.2764 24.5387 16.5518 25.0538 16.956 25.458C17.3603 25.8623 17.8753 26.1376 18.4361 26.2491C18.9968 26.3607 19.578 26.3034 20.1062 26.0847C20.6344 25.8659 21.0858 25.4954 21.4035 25.02C21.7211 24.5446 21.8906 23.9858 21.8906 23.4141C21.8906 22.6474 21.5861 21.9122 21.044 21.3701C20.5019 20.828 19.7666 20.5234 19 20.5234ZM19 25.2207C18.6427 25.2207 18.2934 25.1147 17.9963 24.9162C17.6992 24.7177 17.4676 24.4356 17.3309 24.1054C17.1941 23.7753 17.1584 23.4121 17.2281 23.0616C17.2978 22.7111 17.4698 22.3892 17.7225 22.1366C17.9752 21.8839 18.2971 21.7118 18.6475 21.6421C18.998 21.5724 19.3612 21.6082 19.6914 21.7449C20.0215 21.8817 20.3036 22.1132 20.5022 22.4103C20.7007 22.7074 20.8066 23.0567 20.8066 23.4141C20.8066 23.8932 20.6163 24.3527 20.2775 24.6916C19.9387 25.0304 19.4791 25.2207 19 25.2207ZM27.3691 16.6811C27.4763 16.6811 27.5811 16.6493 27.6702 16.5897C27.7593 16.5302 27.8288 16.4455 27.8698 16.3465C27.9108 16.2475 27.9216 16.1385 27.9007 16.0333C27.8797 15.9282 27.8281 15.8316 27.7523 15.7558C27.6765 15.68 27.58 15.6284 27.4748 15.6075C27.3697 15.5866 27.2607 15.5973 27.1617 15.6383C27.0626 15.6794 26.978 15.7488 26.9184 15.838C26.8589 15.9271 26.8271 16.0319 26.8271 16.1391C26.8271 16.2828 26.8842 16.4207 26.9858 16.5223C27.0875 16.624 27.2253 16.6811 27.3691 16.6811ZM25.9375 20.6427C25.8868 20.5766 25.8216 20.523 25.7469 20.4862C25.6722 20.4493 25.5901 20.4302 25.5068 20.4302C25.4235 20.4302 25.3413 20.4493 25.2667 20.4862C25.192 20.523 25.1268 20.5766 25.0761 20.6427L23.2109 23.0853C23.1388 23.1797 23.0998 23.2952 23.0998 23.4141C23.0998 23.5329 23.1388 23.6484 23.2109 23.7429L25.0703 26.1854C25.121 26.2515 25.1862 26.3051 25.2609 26.3419C25.3356 26.3788 25.4177 26.398 25.501 26.398C25.5843 26.398 25.6665 26.3788 25.7412 26.3419C25.8158 26.3051 25.881 26.2515 25.9317 26.1854L27.7969 23.7429C27.869 23.6484 27.908 23.5329 27.908 23.4141C27.908 23.2952 27.869 23.1797 27.7969 23.0853L25.9375 20.6427ZM25.5039 24.9634L24.3209 23.4141L25.5039 21.8647L26.6869 23.4141L25.5039 24.9634ZM19 22.9082C18.8928 22.9082 18.788 22.94 18.6989 22.9995C18.6098 23.0591 18.5403 23.1437 18.4993 23.2428C18.4582 23.3418 18.4475 23.4508 18.4684 23.5559C18.4893 23.6611 18.541 23.7576 18.6168 23.8334C18.6925 23.9092 18.7891 23.9609 18.8943 23.9818C18.9994 24.0027 19.1084 23.992 19.2074 23.9509C19.3064 23.9099 19.3911 23.8404 19.4506 23.7513C19.5102 23.6622 19.542 23.5574 19.542 23.4502C19.542 23.3064 19.4849 23.1686 19.3832 23.0669C19.2816 22.9653 19.1437 22.9082 19 22.9082ZM12.9297 20.6427C12.879 20.5766 12.8138 20.523 12.7391 20.4862C12.6644 20.4493 12.5823 20.4302 12.499 20.4302C12.4157 20.4302 12.3335 20.4493 12.2588 20.4862C12.1842 20.523 12.119 20.5766 12.0683 20.6427L10.2031 23.0853C10.131 23.1797 10.092 23.2952 10.092 23.4141C10.092 23.5329 10.131 23.6484 10.2031 23.7429L12.0625 26.1854C12.1132 26.2515 12.1784 26.3051 12.2531 26.3419C12.3277 26.3788 12.4099 26.398 12.4932 26.398C12.5765 26.398 12.6587 26.3788 12.7333 26.3419C12.808 26.3051 12.8732 26.2515 12.9239 26.1854L14.7891 23.7429C14.8612 23.6484 14.9002 23.5329 14.9002 23.4141C14.9002 23.2952 14.8612 23.1797 14.7891 23.0853L12.9297 20.6427ZM12.4961 24.9634L11.3131 23.4141L12.4961 21.8647L13.6791 23.4141L12.4961 24.9634ZM19 12.8633C19.1072 12.8633 19.212 12.8315 19.3011 12.7719C19.3902 12.7124 19.4597 12.6277 19.5007 12.5287C19.5418 12.4297 19.5525 12.3207 19.5316 12.2156C19.5107 12.1104 19.459 12.0138 19.3832 11.938C19.3074 11.8622 19.2109 11.8106 19.1057 11.7897C19.0006 11.7688 18.8916 11.7795 18.7926 11.8206C18.6936 11.8616 18.6089 11.931 18.5493 12.0202C18.4898 12.1093 18.458 12.2141 18.458 12.3213C18.458 12.465 18.5151 12.6029 18.6168 12.7045C18.7184 12.8062 18.8563 12.8633 19 12.8633Z" fill="black"/>
</g>
<defs>
<clipPath id="clip0_630_7477">
<rect width="37" height="37" fill="white" transform="translate(0.5)"/>
</clipPath>
</defs>
</svg>
